<svg width="23" height="22" viewBox="0 0 23 22" fill="none" xmlns="http://www.w3.org/2000/svg">
<path d="M19.8573 5.30013L13.5205 0.866615C11.7933 -0.343525 9.14202 -0.277518 7.48086 1.00963L1.96923 5.31113C0.869101 6.16923 0 7.92943 0 9.31554V16.9064C0 19.7117 2.27726 22 5.08259 22H16.9419C19.7472 22 22.0245 19.7227 22.0245 16.9174V9.45855C22.0245 7.97344 21.0674 6.14722 19.8573 5.30013ZM11.8373 17.5995C11.8373 18.0505 11.4633 18.4246 11.0122 18.4246C10.5612 18.4246 10.1871 18.0505 10.1871 17.5995V14.2991C10.1871 13.8481 10.5612 13.474 11.0122 13.474C11.4633 13.474 11.8373 13.8481 11.8373 14.2991V17.5995Z" fill="#2F2F2F" fill-opacity="0.5"/>
</svg>
