<svg width="22" height="22" viewBox="0 0 22 22" fill="none" xmlns="http://www.w3.org/2000/svg">
<path d="M10.9998 10.254C7.26635 10.254 4.2278 7.95355 4.2278 5.12701C4.2278 2.30047 7.26635 0 10.9998 0C14.7332 0 17.7717 2.30047 17.7717 5.12701C17.7717 7.95355 14.7332 10.254 10.9998 10.254ZM10.9998 1.33748C8.24387 1.33748 5.9944 3.04054 5.9944 5.12701C5.9944 7.21348 8.24387 8.91654 10.9998 8.91654C13.7557 8.91654 16.0051 7.21348 16.0051 5.12701C16.0051 3.04054 13.7557 1.33748 10.9998 1.33748Z" fill="#848282" fill-opacity="0.5"/>
<path d="M10.9998 10.254C7.26635 10.254 4.2278 7.95355 4.2278 5.12701C4.2278 2.30047 7.26635 0 10.9998 0C14.7332 0 17.7717 2.30047 17.7717 5.12701C17.7717 7.95355 14.7332 10.254 10.9998 10.254ZM10.9998 1.33748C8.24387 1.33748 5.9944 3.04054 5.9944 5.12701C5.9944 7.21348 8.24387 8.91654 10.9998 8.91654C13.7557 8.91654 16.0051 7.21348 16.0051 5.12701C16.0051 3.04054 13.7557 1.33748 10.9998 1.33748Z" fill="black"/>
<path d="M21.1167 19.1705C20.6338 19.1705 20.2334 18.8674 20.2334 18.5018C20.2334 15.4256 16.0879 12.929 11.0001 12.929C5.91221 12.929 1.7666 15.4256 1.7666 18.5018C1.7666 18.8674 1.36617 19.1705 0.883301 19.1705C0.40043 19.1705 0 18.8674 0 18.5018C0 14.6944 4.93469 11.5915 11.0001 11.5915C17.0654 11.5915 22 14.6944 22 18.5018C22 18.8674 21.5996 19.1705 21.1167 19.1705Z" fill="#848282" fill-opacity="0.5"/>
<path d="M21.1167 19.1705C20.6338 19.1705 20.2334 18.8674 20.2334 18.5018C20.2334 15.4256 16.0879 12.929 11.0001 12.929C5.91221 12.929 1.7666 15.4256 1.7666 18.5018C1.7666 18.8674 1.36617 19.1705 0.883301 19.1705C0.40043 19.1705 0 18.8674 0 18.5018C0 14.6944 4.93469 11.5915 11.0001 11.5915C17.0654 11.5915 22 14.6944 22 18.5018C22 18.8674 21.5996 19.1705 21.1167 19.1705Z" fill="black"/>
<path d="M21.1167 17.6482C20.6338 17.6482 20.2334 17.9514 20.2334 18.317C20.2334 21.3932 13.7882 20.8851 11.0001 20.8851C8.21202 20.8851 1.7666 21.3932 1.7666 18.317C1.7666 17.9514 1.36617 17.6482 0.8833 17.6482C0.40043 17.6482 0 17.9514 0 18.317C0 22.1244 4.93469 21.9995 11.0001 21.9995C17.0654 21.9995 22 22.1244 22 18.317C22 17.9514 21.5996 17.6482 21.1167 17.6482Z" fill="#848282" fill-opacity="0.5"/>
<path d="M21.1167 17.6482C20.6338 17.6482 20.2334 17.9514 20.2334 18.317C20.2334 21.3932 13.7882 20.8851 11.0001 20.8851C8.21202 20.8851 1.7666 21.3932 1.7666 18.317C1.7666 17.9514 1.36617 17.6482 0.8833 17.6482C0.40043 17.6482 0 17.9514 0 18.317C0 22.1244 4.93469 21.9995 11.0001 21.9995C17.0654 21.9995 22 22.1244 22 18.317C22 17.9514 21.5996 17.6482 21.1167 17.6482Z" fill="black"/>
</svg>
